<?xml version="1.0" encoding="UTF-8"?>
<svg id="Layer_1" data-name="Layer 1" xmlns="http://www.w3.org/2000/svg" viewBox="0 0 1021.26 211.48">
  <defs>
    <style>
      .cls-1 {
        fill: #283d90;
      }

      .cls-2 {
        fill: #5cbd7a;
      }
    </style>
  </defs>
  <path class="cls-1" d="M681.52,99.76c-3-2.37-16.02-8.3-20.32-10.13-13.39-5.69-50.84-13.02-56.07-25.7-9.76-23.67,27.77-21.42,41.4-17.05,5.88,1.89,22.59,13.08,25.74,12.12,6.19-9.9,18.61-20.43,23.9-30.2.95-1.75,2.35-2.15.83-4.49-2.27-3.5-20.06-13.26-24.88-15.22-45.24-18.43-113.9-11.02-123.54,46.14-9.95,58.97,48.36,58.79,82.2,78.73,10.34,6.09,18.08,18.12,6,26.89-18.09,13.13-55.08-3.14-68.65-18.15-3.7,5.41-32.74,37.01-31.44,39.99,37.43,37.79,136.68,42.04,160.25-12.14,9.68-22.25,4.25-55.25-15.42-70.8h0Z"/>
  <path class="cls-2" d="M98.31,5.21C66.83,2.53,31.84,7.2,0,5.21v43.5h98.31c26.96,2.16,29.76,41.14,3.48,46.98H0v43.5h47.85c13.79,0,38.37,36.99,50.42,47.02,16.95,14.11,37.85,21.77,60.07,20.84v-43.5c-19.53.37-34.85-10.48-45.24-26.08,25.77-6.63,48.21-29.22,50.52-56.51,3.56-42.02-23.85-72.23-65.32-75.76h.01Z"/>
  <path class="cls-1" d="M438.5,5.21h-139.21v200.11h52.2v-69.6h67.87v-45.24h-66.13v-38.28h85.27V5.21h0ZM462.86,5.21h53.94v201.85h-53.94V5.21ZM729.09,5.21h53.94v201.85h-53.94V5.21Z"/>
  <path class="cls-2" d="M194.89,163.56h43.5v43.5h-43.5v-43.5Z"/>
  <path class="cls-1" d="M915.52,0C857.12,0,809.78,47.34,809.78,105.74s47.34,105.74,105.74,105.74,105.74-47.34,105.74-105.74S973.92,0,915.52,0ZM917.81,161.84c-64.86,2.85-67.43-101.8-13.43-110.97,76.76-13.04,80.21,108.04,13.43,110.97Z"/>
</svg>
